<svg xmlns="http://www.w3.org/2000/svg" class="icon icon-tabler icon-tabler-admin" width="44" height="44" viewBox="0 0 512 512" stroke-width="1.5" stroke="#2c3e50" fill="none" stroke-linecap="round" stroke-linejoin="round">
<path stroke="none" d="M0 0h24v24H0z" fill="none"/>
<path d="M0 0 C1.15778648 -0.00525911 1.15778648 -0.00525911 2.33896258 -0.01062447 C4.91664701 -0.01990338 7.49410376 -0.01502426 10.07179737 -0.01015663 C11.94209804 -0.01389466 13.81239714 -0.01849679 15.68269378 -0.02388728 C20.81585346 -0.03611384 25.94894795 -0.0358572 31.08211887 -0.03349853 C36.62080283 -0.03309027 42.15946592 -0.04413035 47.69814014 -0.05361366 C58.54734913 -0.07022293 69.39653637 -0.07572318 80.24575701 -0.07683842 C89.06553863 -0.07778896 97.88531308 -0.08189955 106.70509243 -0.08823967 C127.64602283 -0.10298655 148.58694935 -0.11528942 169.52788544 -0.11424255 C170.19734803 -0.1142114 170.86681062 -0.11418024 171.55655995 -0.11414814 C174.9495232 -0.11398193 178.34248645 -0.11378385 181.73544969 -0.11357872 C182.40928002 -0.11353883 183.08311034 -0.11349894 183.77735977 -0.11345784 C185.14000892 -0.11337697 186.50265807 -0.11329337 187.86530723 -0.11320706 C209.06045154 -0.11198187 230.25553184 -0.12699 251.45065784 -0.15435219 C275.27474231 -0.18509574 299.09878506 -0.20225797 322.92289478 -0.20042574 C335.53286829 -0.19976197 348.1427696 -0.2052489 360.75272655 -0.22678185 C371.48962211 -0.24499891 382.22641274 -0.24933661 392.96331706 -0.235763 C398.43935218 -0.22923599 403.91518604 -0.22910671 409.39120197 -0.2464695 C414.40941626 -0.2622168 419.42726997 -0.25931945 424.44547556 -0.24190123 C426.25568617 -0.23883501 428.0659238 -0.2424494 429.87610253 -0.25362138 C443.79425165 -0.33379503 455.76861784 0.57234806 466.64523792 10.25726891 C473.78557227 19.50478456 475.84440929 27.86268375 475.71008778 39.38889122 C475.71558112 40.77806622 475.72369566 42.16723286 475.73417509 43.5563792 C475.75519028 47.34122238 475.7391971 51.12510994 475.71667409 54.90991044 C475.69889204 59.00403839 475.71590502 63.09804783 475.72839832 67.19217491 C475.74732083 75.19912908 475.73422258 83.20572134 475.70987244 91.21264853 C475.68255574 100.54449742 475.68591482 109.87626128 475.6901391 119.20814 C475.69651088 135.86147189 475.67322829 152.51463237 475.63400745 169.16791344 C475.59599027 185.31445089 475.58183653 201.46078755 475.59299183 217.60736656 C475.60511584 235.20806121 475.60473879 252.8086677 475.58202016 270.40935504 C475.57960568 272.28710484 475.57719371 274.16485464 475.57478428 276.04260445 C475.57297366 277.42829556 475.57297366 277.42829556 475.57112647 278.84198043 C475.56337874 285.34163759 475.56415124 291.84126186 475.56795597 298.3409214 C475.57220638 306.26384369 475.56170237 314.18659045 475.53272887 322.10946335 C475.51827282 326.14924506 475.5100593 330.18877155 475.51921558 334.22857475 C475.52740271 337.93090039 475.51694216 341.63270037 475.49196343 345.3349465 C475.48338735 347.29936261 475.4942509 349.26383437 475.50594199 351.22823441 C475.39750039 362.2257204 472.82007807 370.2782586 465.15695667 378.28070641 C453.76922542 388.53371711 439.14463313 387.54716685 424.730443 387.48431969 C422.90618362 387.48375466 421.08192379 387.48407392 419.25766468 387.4852047 C414.33487891 387.48577564 409.41219173 387.47406342 404.48942876 387.46005678 C399.33382535 387.44750609 394.17821937 387.44637551 389.02260303 387.44400597 C379.27293191 387.43780391 369.52330594 387.4214104 359.77365464 387.40130699 C348.66841766 387.37890823 337.56317845 387.36794457 326.45792449 387.35791612 C303.62580522 387.337043 280.79372914 387.30148633 257.96164417 387.25726891 C257.96164417 397.81726891 257.96164417 408.37726891 257.96164417 419.25726891 C260.89039417 419.17476891 263.81914417 419.09226891 266.83664417 419.00726891 C277.63064929 418.91490302 285.18819302 420.75327873 293.20773792 428.33539391 C300.5170721 436.34473113 302.32104124 444.82697481 302.33664417 455.44476891 C302.36113636 456.3335775 302.38562855 457.22238609 302.41086292 458.13812828 C302.44005752 464.6144625 302.44005752 464.6144625 300.06320667 467.80805016 C296.44413125 470.30373228 294.30324713 470.38611387 289.90834522 470.3977108 C288.61704197 470.40342094 287.32573872 470.40913109 285.99530506 470.41501427 C284.55594358 470.41625969 283.116582 470.41738477 281.67722034 470.41840172 C280.16781461 470.42302887 278.65841004 470.42805339 277.14900684 470.43344688 C273.04148299 470.44658348 268.93397548 470.45301838 264.8264339 470.45745754 C262.2611381 470.46038646 259.69584679 470.46449093 257.13055325 470.46896172 C249.10709408 470.48264044 241.08364514 470.49230506 233.06017512 470.49616361 C223.79328787 470.50064436 214.52654812 470.51819145 205.25970572 470.5471642 C198.10040775 470.56877185 190.94115131 470.57886741 183.78182107 470.58020473 C179.50426844 470.58125349 175.2268544 470.58717621 170.94933605 470.60502434 C166.9249563 470.62148905 162.90081952 470.6236684 158.87641811 470.61488533 C157.39979496 470.61411407 155.92315883 470.6184694 154.44656849 470.62834358 C152.42971661 470.64103888 150.41276737 470.63340337 148.39589405 470.62476158 C147.2674517 470.62622814 146.13900934 470.6276947 144.97637177 470.6292057 C141.57911626 470.21007519 139.6953839 469.28449538 136.96164417 467.25726891 C135.18326805 463.70051665 135.73417339 459.61203674 135.71164417 455.69476891 C135.69101917 454.82529625 135.67039417 453.95582359 135.64914417 453.06000328 C135.58680717 442.61076403 138.63274684 434.7697417 145.96164417 427.25726891 C153.87061998 420.82005033 160.7940028 418.93718235 170.83664417 419.13226891 C173.84789417 419.17351891 176.85914417 419.21476891 179.96164417 419.25726891 C179.96164417 408.69726891 179.96164417 398.13726891 179.96164417 387.25726891 C177.66837681 387.26171013 175.37510944 387.26615135 173.01234913 387.27072716 C151.39776234 387.3116265 129.78318067 387.34137445 108.16856384 387.36089325 C97.05636216 387.37119522 85.94418892 387.38523491 74.8320055 387.40814781 C65.14390824 387.42811474 55.45583159 387.44099319 45.76771432 387.4454459 C40.64042377 387.44804768 35.51319215 387.4541405 30.38592052 387.46872902 C25.5539571 387.48236513 20.72207655 387.4864794 15.89009571 387.48348427 C14.12251109 387.48403174 12.35492352 387.4879731 10.58735561 387.49567986 C-3.89728288 387.55570406 -16.73986669 387.55821898 -28.07741833 377.43695641 C-36.45378399 368.63286144 -37.62968361 359.13046416 -37.55974865 347.37961388 C-37.56579962 345.99359437 -37.57358255 344.60758155 -37.58293378 343.22158039 C-37.60340977 339.43629582 -37.59915208 335.65139189 -37.5905726 331.86607671 C-37.58562271 327.77460079 -37.6036854 323.68321472 -37.61864758 319.59177208 C-37.64410294 311.58530558 -37.64773384 303.57897334 -37.64304705 295.57247318 C-37.63947617 289.06250177 -37.64298967 282.55257101 -37.65149593 276.04260445 C-37.65268631 275.11490264 -37.65387669 274.18720084 -37.65510314 273.23138686 C-37.65752672 271.34655897 -37.65995499 269.46173109 -37.66238789 267.57690321 C-37.68412397 249.91426207 -37.67982091 232.25169737 -37.6676182 214.58905195 C-37.65728047 198.44431502 -37.67979161 182.29981947 -37.71781464 166.15513028 C-37.7565939 149.56163082 -37.77307956 132.96824549 -37.76556814 116.37470043 C-37.76174753 107.06512181 -37.76668565 97.75574862 -37.79499722 88.44620705 C-37.81885558 80.5210635 -37.82160062 72.59625185 -37.79741688 64.67110361 C-37.78566062 60.6309501 -37.78337933 56.59140318 -37.80742168 52.55129051 C-37.8292138 48.84612776 -37.8228489 45.14207526 -37.79489832 41.43696366 C-37.78714343 39.47588324 -37.80863984 37.51475281 -37.83149207 35.55379021 C-37.70642474 25.24383292 -34.64379789 16.95324984 -27.66335583 9.25726891 C-19.87323195 2.22047569 -10.30606008 -0.06020754 0 0 Z M-17.41335583 23.50726891 C-21.58451152 30.56614776 -21.32110771 38.19809825 -21.27886486 46.15289879 C-21.2805769 47.33295494 -21.28228893 48.51301109 -21.28405285 49.72882652 C-21.28677828 52.99310889 -21.28053963 56.25723105 -21.27050129 59.52149451 C-21.26174284 63.0998386 -21.26469216 66.67817698 -21.26613712 70.25652885 C-21.26719875 77.19685742 -21.25798063 84.13713406 -21.24513447 91.07744929 C-21.23071553 99.10842289 -21.22914393 107.13936545 -21.22756481 115.17035484 C-21.21707079 136.36600107 -21.18914849 157.56163577 -21.16335583 178.75726891 C-21.12210583 226.11226891 -21.08085583 273.46726891 -21.03835583 322.25726891 C137.36164417 322.25726891 295.76164417 322.25726891 458.96164417 322.25726891 C459.00289417 274.90226891 459.04414417 227.54726891 459.08664417 178.75726891 C459.10485218 163.79447594 459.12306019 148.83168297 459.14181995 133.41547203 C459.14850805 120.02478646 459.14850805 120.02478646 459.15253162 106.63409996 C459.15439794 100.66110221 459.16173961 94.6881418 459.1727953 88.71515465 C459.18552709 81.82644369 459.19131578 74.93776859 459.18853407 68.04904577 C459.18732936 64.52526727 459.18923807 61.00156893 459.20007443 57.47780514 C459.21000552 53.70277081 459.20763007 49.92793763 459.20215321 46.15289879 C459.2108912 44.50743694 459.2108912 44.50743694 459.21980572 42.82873344 C459.19121521 35.50858727 458.91602117 29.21675407 454.77414417 22.94476891 C449.45599815 17.86298493 444.23131064 16.80840099 437.06360435 16.87695217 C436.29477931 16.87229225 435.52595427 16.86763233 434.7338315 16.86283121 C432.16038868 16.85089063 429.58747473 16.86027289 427.0140276 16.86958885 C425.14927472 16.86541553 423.28452438 16.85993802 421.41977876 16.85326904 C416.2974772 16.83879562 411.17533627 16.84306511 406.05302584 16.85043585 C400.5280481 16.85516049 395.00310546 16.84266393 389.47813892 16.83241844 C378.65519003 16.81521151 367.83229914 16.81439434 357.00934011 16.81963135 C348.21380227 16.82367062 339.41828158 16.82223237 330.62274456 16.81688309 C329.37153949 16.81613467 328.12033442 16.81538624 326.83121405 16.81461514 C324.28950663 16.81308369 321.74779922 16.81154534 319.20609181 16.81000017 C302.13765178 16.80016963 285.06921755 16.79600957 268.00077629 16.80362606 C266.99969282 16.80407182 266.99969282 16.80407182 265.97838545 16.80452659 C260.55874884 16.80697551 255.13911231 16.8095871 249.71947578 16.81221072 C228.57824458 16.82231366 207.43709281 16.81395669 186.29587269 16.79071617 C162.54142607 16.76464516 138.78702075 16.75184468 115.03255552 16.75890392 C102.45570691 16.76239985 89.87892352 16.76013935 77.30208492 16.74265289 C66.59612455 16.72795244 55.89027533 16.7272673 45.18431718 16.7447238 C39.72106394 16.75325376 34.25800946 16.75533459 28.79476643 16.74007225 C23.79403707 16.72627482 18.79367768 16.73092459 13.79296999 16.75031149 C11.98349411 16.754087 10.17398894 16.75110507 8.36453903 16.74069984 C5.90442192 16.72755841 3.44558707 16.73908689 0.98552513 16.75669765 C0.28337803 16.74704714 -0.41876906 16.73739663 -1.14219335 16.72745368 C-7.61019901 16.82249183 -12.76387908 19.10250146 -17.41335583 23.50726891 Z M-21.03835583 339.25726891 C-21.54129683 353.4085193 -21.54129683 353.4085193 -15.85085583 365.13226891 C-10.11787834 369.46385189 -4.21335048 370.70683685 2.92026234 370.63479233 C3.68348773 370.63915265 4.44671312 370.64351297 5.23306656 370.64800543 C7.78144755 370.65892279 10.32928308 370.64855631 12.8776598 370.63821983 C14.72677607 370.64167779 16.57589028 370.64644328 18.42500019 370.65240157 C23.49944175 370.66492226 28.573714 370.65873626 33.64815617 370.64944291 C39.12335067 370.64265718 44.598516 370.6531313 50.07370472 370.66138268 C60.79692473 370.67472725 71.52008177 370.67183902 82.24330425 370.66314475 C90.95777243 370.65637148 99.67222295 370.65544995 108.386693 370.6587162 C110.2466452 370.65940575 110.2466452 370.65940575 112.14417219 370.66010923 C114.66309008 370.6610684 117.18200795 370.66204104 119.70092583 370.663027 C142.65105892 370.67133908 165.60116448 370.66271699 188.55129111 370.64699921 C209.49798969 370.6327626 230.44463356 370.63403649 251.39133167 370.64838219 C274.93007224 370.66444924 298.46878873 370.67075903 322.00753498 370.6615454 C324.51722176 370.66058974 327.02690855 370.65964663 329.53659534 370.6587162 C331.38884905 370.65802196 331.38884905 370.65802196 333.27852201 370.6573137 C341.98320627 370.65472269 350.68787112 370.6590972 359.39255238 370.66615486 C369.9996614 370.67456588 380.60670381 370.67229805 391.2138052 370.65631263 C396.62640137 370.64842461 402.03888645 370.64534744 407.45148182 370.65526009 C412.40585801 370.66419636 417.36002008 370.6592916 422.31437683 370.64332743 C424.1069982 370.63997513 425.89963764 370.64168378 427.69224739 370.64895479 C430.1294305 370.65808228 432.56588101 370.64871579 435.00302601 370.63479233 C436.04619181 370.64532758 436.04619181 370.64532758 437.11043167 370.65607566 C443.4694154 370.5835038 448.72455543 368.94751373 453.77414417 365.13226891 C459.96752618 356.99239541 458.96164417 349.82464319 458.96164417 339.25726891 C300.56164417 339.25726891 142.16164417 339.25726891 -21.03835583 339.25726891 Z M196.96164417 387.25726891 C196.96164417 397.81726891 196.96164417 408.37726891 196.96164417 419.25726891 C211.48164417 419.25726891 226.00164417 419.25726891 240.96164417 419.25726891 C240.96164417 408.69726891 240.96164417 398.13726891 240.96164417 387.25726891 C226.44164417 387.25726891 211.92164417 387.25726891 196.96164417 387.25726891 Z M155.64914417 442.88226891 C152.66286146 447.08518531 152.96164417 447.35729795 152.96164417 453.25726891 C196.52164417 453.25726891 240.08164417 453.25726891 284.96164417 453.25726891 C284.96164417 447.00040705 284.67427926 445.87297739 280.96164417 441.25726891 C277.06462922 437.8241843 274.75269938 436.1376473 269.5854845 436.11009789 C268.66584919 436.10294258 267.74621387 436.09578728 266.79871082 436.08841515 C265.78674641 436.08572624 264.77478199 436.08303734 263.73215199 436.08026695 C262.66860493 436.07369576 261.60505787 436.06712456 260.50928211 436.06035423 C256.97777714 436.04058912 253.44631476 436.02895135 249.91476917 436.01898766 C248.71051037 436.01491213 247.50625156 436.0108366 246.26550007 436.00663757 C239.89143004 435.98576295 233.51738164 435.97146735 227.1432848 435.96210289 C220.55452597 435.95103668 213.9661047 435.91663786 207.37746525 435.87693119 C202.31598749 435.85080286 197.25459061 435.84241438 192.19305134 435.83882141 C189.76415954 435.83394555 187.33527159 435.82230331 184.9064455 435.80378342 C181.50692883 435.77947377 178.10829121 435.78034254 174.70871449 435.7872982 C173.20291325 435.76808311 173.20291325 435.76808311 171.66669178 435.74847984 C164.46932459 435.80216597 160.53139021 437.34025989 155.64914417 442.88226891 Z " fill="#2c3e50" transform="translate(37.03835582733154,20.74273109436035)"/>
<path d="M0 0 C1.23878906 0.10957031 2.47757813 0.21914062 3.75390625 0.33203125 C4.94113281 0.45449219 6.12835938 0.57695313 7.3515625 0.703125 C8.94605225 0.86022949 8.94605225 0.86022949 10.57275391 1.02050781 C13.97927983 1.9073086 15.26388019 2.95622985 17.375 5.75 C18.10449219 8.05249023 18.10449219 8.05249023 18.421875 10.55859375 C18.60556641 11.92661133 18.60556641 11.92661133 18.79296875 13.32226562 C18.90253906 14.26779297 19.01210937 15.21332031 19.125 16.1875 C19.25003906 17.12916016 19.37507812 18.07082031 19.50390625 19.04101562 C20.05249451 23.31216708 20.43840613 27.43886367 20.375 31.75 C22.36036627 32.45905938 24.36410922 33.11694179 26.375 33.75 C27.2515625 34.0284375 28.128125 34.306875 29.03125 34.59375 C34.64495468 34.85607265 38.79583747 31.70512343 43.56640625 28.99804688 C48.80516419 26.16520408 52.39843575 24.79549652 58.375 25.75 C61.015625 27.83984375 61.015625 27.83984375 63.375 30.75 C64.30430302 31.79563256 65.23673853 32.83848741 66.171875 33.87890625 C69.28003032 37.46873171 72.33806072 41.0998326 75.375 44.75 C75.84679687 45.31299805 76.31859375 45.87599609 76.8046875 46.45605469 C78.09861629 48.01643558 79.36259653 49.60150576 80.625 51.1875 C81.35203125 52.09371094 82.0790625 52.99992187 82.828125 53.93359375 C84.83239569 57.58278356 84.98784744 59.63581092 84.375 63.75 C82.86266152 66.22630996 81.47782981 68.19948634 79.625 70.375 C79.1815625 70.9215625 78.738125 71.468125 78.28125 72.03125 C76.24261938 74.53756647 74.1621416 76.99341904 72.03515625 79.42578125 C70.00439205 81.75844081 70.00439205 81.75844081 70.5625 85.3125 C70.830625 86.446875 71.09875 87.58125 71.375 88.75 C71.45387451 89.44037354 71.53274902 90.13074707 71.61401367 90.84204102 C72.22040929 92.96977779 72.22040929 92.96977779 74.53637695 93.85913086 C75.46925537 94.14151611 76.40213379 94.42390137 77.36328125 94.71484375 C78.88791992 95.20307617 78.88791992 95.20307617 80.44335938 95.70117188 C82.59430551 96.35513202 84.74534616 97.00878134 86.89648438 97.66210938 C91.10642714 99.01046123 94.60013377 100.14584822 98.10546875 102.87890625 C100.03777762 107.24889708 99.71416699 111.04062048 99.375 115.75 C99.29830078 116.91740723 99.22160156 118.08481445 99.14257812 119.28759766 C98.90144103 122.54502716 98.62363644 125.79564193 98.31298828 129.04711914 C98.18689457 130.398942 98.06882281 131.75153543 97.95849609 133.10473633 C97.79676376 135.08822361 97.60961911 137.06958684 97.421875 139.05078125 C97.31713867 140.21778564 97.21240234 141.38479004 97.10449219 142.5871582 C96.2471757 146.30420476 95.10342736 148.10321535 92.375 150.75 C90.18017578 151.59301758 90.18017578 151.59301758 87.8203125 151.89453125 C86.95792969 152.01376953 86.09554687 152.13300781 85.20703125 152.25585938 C84.31371094 152.35705078 83.42039062 152.45824219 82.5 152.5625 C81.61441406 152.68302734 80.72882813 152.80355469 79.81640625 152.92773438 C75.31133357 153.51520659 70.92680532 153.89271337 66.375 153.75 C66.08625 154.636875 65.7975 155.52375 65.5 156.4375 C64.375 159.75 64.375 159.75 63.18017578 162.16625977 C62.12618403 164.70129492 62.12618403 164.70129492 63.06591797 167.05834961 C63.49533691 167.83186768 63.92475586 168.60538574 64.3671875 169.40234375 C64.82480469 170.26150391 65.28242188 171.12066406 65.75390625 172.00585938 C66.24761719 172.89080078 66.74132812 173.77574219 67.25 174.6875 C73.29505572 185.64716998 73.29505572 185.64716998 72.375 190.75 C68.93930996 197.4329245 61.10388259 202.20170616 55.375 206.75 C53.37286603 208.39323672 51.37279379 210.03898936 49.375 211.6875 C41.17419117 218.44601542 41.17419117 218.44601542 36.52734375 218.328125 C30.72278462 216.76900567 25.61295137 211.78301077 21.2421875 207.8125 C18.4513503 205.37192981 16.5494797 203.87475505 12.80078125 203.4765625 C9.86843818 203.776218 7.92987935 204.27445471 5.375 205.75 C3.19006141 208.81524718 2.37631577 212.15166434 1.375 215.75 C0.56222415 218.23598215 -0.27182668 220.71509083 -1.125 223.1875 C-1.5065625 224.36183594 -1.888125 225.53617188 -2.28125 226.74609375 C-3.7434456 230.01478101 -4.61069832 230.94347676 -7.625 232.75 C-15.97188361 233.98670811 -25.16139375 232.32199675 -33.5 231.5 C-34.79164063 231.39042969 -36.08328125 231.28085937 -37.4140625 231.16796875 C-39.27804688 230.98427734 -39.27804688 230.98427734 -41.1796875 230.796875 C-42.29843262 230.69213867 -43.41717773 230.58740234 -44.56982422 230.47949219 C-48.19235397 229.61453143 -50.00216118 228.36988982 -52.625 225.75 C-54.02839254 221.3182341 -54.58966811 217.42730563 -54.83203125 212.78125 C-54.88141846 212.07709961 -54.93080566 211.37294922 -54.98168945 210.64746094 C-55.07552086 209.24142842 -55.12900431 207.8319862 -55.13745117 206.42285156 C-55.37154058 203.16547164 -56.16525754 201.16167303 -58.59106445 198.98950195 C-62.201622 196.79089428 -64.96499622 195.39300656 -69.20654297 196.30517578 C-71.87823003 197.51619586 -74.31833683 198.89422456 -76.8125 200.4375 C-87.42686493 206.67414353 -87.42686493 206.67414353 -93.625 205.75 C-96.0625 203.8125 -96.0625 203.8125 -98.625 200.75 C-99.87403902 199.374127 -101.12414064 197.99921827 -102.375 196.625 C-106.94027834 191.45447642 -111.2968697 186.11948496 -115.625 180.75 C-116.35332031 179.86570312 -117.08164063 178.98140625 -117.83203125 178.0703125 C-119.8794235 175.42074606 -120.54536443 174.09469374 -120.625 170.75 C-118.33964864 164.0647373 -114.39415666 159.68580112 -109.48046875 154.70703125 C-106.91125165 151.79278739 -105.65197738 149.90760248 -105.55981445 145.95288086 C-106.14066411 142.72971373 -106.86032222 140.51440223 -108.625 137.75 C-112.05900258 135.52499704 -115.59608526 134.69420782 -119.5625 133.8125 C-121.55357212 133.31441186 -123.54201353 132.80565977 -125.52734375 132.28515625 C-126.84980103 131.98170288 -126.84980103 131.98170288 -128.19897461 131.67211914 C-131.20166545 130.53081258 -132.6424515 129.2698877 -134.625 126.75 C-136.02057278 122.64229282 -135.53446841 118.78138451 -135.13671875 114.5078125 C-135.07345901 113.82121552 -135.01019928 113.13461853 -134.94502258 112.42721558 C-134.80976095 110.97962328 -134.67087092 109.53236595 -134.52856445 108.08544922 C-134.31395066 105.88984094 -134.11416756 103.69324179 -133.91601562 101.49609375 C-133.78214067 100.08324865 -133.64740284 98.670485 -133.51171875 97.2578125 C-133.39014404 95.98566895 -133.26856934 94.71352539 -133.14331055 93.40283203 C-131.79425214 83.89524286 -131.79425214 83.89524286 -128.72265625 80.88671875 C-123.04838375 78.80448256 -116.9077564 78.73339156 -110.90820312 78.37304688 C-105.39330842 77.98535534 -105.39330842 77.98535534 -100.98486328 75.02880859 C-99.35675618 72.05151871 -98.625 69.64504201 -98.625 66.25 C-100.07335005 62.62912487 -101.80594913 59.19729221 -103.625 55.75 C-109.14861511 45.28216996 -109.14861511 45.28216996 -108.125 40.33203125 C-105.94569458 36.58067479 -102.94025064 34.18582293 -99.625 31.4375 C-98.95235107 30.86789551 -98.27970215 30.29829102 -97.58666992 29.71142578 C-92.3463391 25.29304626 -87.04749727 20.94339789 -81.625 16.75 C-80.94824219 16.20085937 -80.27148438 15.65171875 -79.57421875 15.0859375 C-77.1199286 13.40383884 -75.00002137 12.97219558 -72.03515625 13.06640625 C-65.79505364 14.83628949 -60.38789894 20.20991549 -55.6875 24.53125 C-53.05931971 26.80563679 -51.24726116 27.78221516 -47.7578125 27.6015625 C-44.99209806 27.11597905 -42.32510091 26.51657476 -39.625 25.75 C-39.46644531 25.03457031 -39.30789062 24.31914063 -39.14453125 23.58203125 C-33.04920402 -2.44939386 -25.30203661 -2.63619501 0 0 Z M-18.625 15.75 C-18.9492395 16.72610229 -18.9492395 16.72610229 -19.2800293 17.72192383 C-20.27257107 20.6752958 -21.2921303 23.61863266 -22.3125 26.5625 C-22.65216797 27.58666016 -22.99183594 28.61082031 -23.34179688 29.66601562 C-23.68662109 30.64892578 -24.03144531 31.63183594 -24.38671875 32.64453125 C-24.69569092 33.55050049 -25.00466309 34.45646973 -25.32299805 35.38989258 C-28.16713667 40.5453938 -34.11787407 41.78105956 -39.4375 43.4375 C-40.11103516 43.66244141 -40.78457031 43.88738281 -41.47851562 44.11914062 C-46.13107249 45.5839169 -50.77458386 46.84817417 -55.625 45.75 C-58.68359925 44.08229328 -61.27395874 41.98345102 -63.9375 39.75 C-65.32453513 38.61897411 -66.71626713 37.4936767 -68.11328125 36.375 C-68.71696533 35.87226562 -69.32064941 35.36953125 -69.94262695 34.8515625 C-71.70815412 33.47610551 -71.70815412 33.47610551 -74.625 33.75 C-76.31729764 34.75489284 -76.31729764 34.75489284 -77.98046875 36.15625 C-78.91342773 36.90068359 -78.91342773 36.90068359 -79.86523438 37.66015625 C-80.50783203 38.18480469 -81.15042969 38.70945312 -81.8125 39.25 C-82.46669922 39.77464844 -83.12089844 40.29929687 -83.79492188 40.83984375 C-85.4101669 42.13675581 -87.01827566 43.44254664 -88.625 44.75 C-87.03032166 50.03337875 -84.66261801 54.72825775 -82.015625 59.5390625 C-79.92322302 63.53045115 -78.86762992 66.28206138 -79.625 70.75 C-81.15851143 74.30714514 -83.01732733 77.63909248 -84.9375 81 C-85.68676758 82.36511719 -85.68676758 82.36511719 -86.45117188 83.7578125 C-90.21392808 90.47595205 -90.21392808 90.47595205 -93.625 92.75 C-95.98510742 93.25244141 -95.98510742 93.25244141 -98.73046875 93.6015625 C-99.71337891 93.73046875 -100.69628906 93.859375 -101.70898438 93.9921875 C-102.73314453 94.11851562 -103.75730469 94.24484375 -104.8125 94.375 C-105.84826172 94.5090625 -106.88402344 94.643125 -107.95117188 94.78125 C-110.50830003 95.11120202 -113.06613797 95.43382514 -115.625 95.75 C-115.96219047 98.31204544 -116.29487153 100.87454318 -116.625 103.4375 C-116.72039062 104.15873047 -116.81578125 104.87996094 -116.9140625 105.62304688 C-117.04941406 106.68168945 -117.04941406 106.68168945 -117.1875 107.76171875 C-117.27128906 108.40584717 -117.35507813 109.04997559 -117.44140625 109.71362305 C-117.65358869 112.06709879 -117.65369239 114.38825775 -117.625 116.75 C-117.00455811 116.95681396 -116.38411621 117.16362793 -115.74487305 117.37670898 C-108.37158203 119.83447266 -100.99829102 122.29223633 -93.625 124.75 C-92.78836972 127.3581428 -92.13294344 129.83323559 -91.5625 132.5 C-91.24161209 133.93304158 -90.91746139 135.36535696 -90.58984375 136.796875 C-90.35563721 137.83038086 -90.35563721 137.83038086 -90.11669922 138.88476562 C-89.63885998 140.90020633 -89.63885998 140.90020633 -88.50390625 143.265625 C-87.24522661 146.82349278 -86.90062254 150.06702061 -87.625 153.75 C-89.07919656 156.47785271 -90.95743713 158.69190395 -93 161 C-94.01069826 162.19026394 -95.01860589 163.38290425 -96.0234375 164.578125 C-96.47380371 165.0927832 -96.92416992 165.60744141 -97.38818359 166.13769531 C-98.9272032 168.03847175 -98.9272032 168.03847175 -100.625 171.75 C-96.335 176.7 -92.045 181.65 -87.625 186.75 C-85.02625 185.450625 -82.4275 184.15125 -79.75 182.8125 C-67.36511299 176.6200565 -67.36511299 176.6200565 -61.625 177.75 C-58.43837892 179.32431743 -55.47984908 181.1145356 -52.47265625 183.0078125 C-50.14398786 184.4324848 -48.04182381 185.49293917 -45.5 186.4375 C-42.19287497 187.94727447 -41.89731298 188.48280837 -40.625 191.75 C-40.12255859 194.22363281 -40.12255859 194.22363281 -39.7734375 196.953125 C-39.64453125 197.9328125 -39.515625 198.9125 -39.3828125 199.921875 C-39.25648438 200.93765625 -39.13015625 201.9534375 -39 203 C-38.79890625 204.546875 -38.79890625 204.546875 -38.59375 206.125 C-38.26438202 208.66583871 -37.94383552 211.20781816 -37.625 213.75 C-30.695 214.41 -23.765 215.07 -16.625 215.75 C-16.16609375 214.28046875 -15.7071875 212.8109375 -15.234375 211.296875 C-14.61522532 209.36437753 -13.99539813 207.43209704 -13.375 205.5 C-13.07464844 204.53191406 -12.77429688 203.56382812 -12.46484375 202.56640625 C-12.16191406 201.63183594 -11.85898438 200.69726562 -11.546875 199.734375 C-11.27456055 198.87553711 -11.00224609 198.01669922 -10.72167969 197.13183594 C-8.86183671 193.09251535 -6.61353589 191.12670235 -2.48828125 189.5546875 C1.12991765 188.60734829 4.74814221 187.66369685 8.375 186.75 C9.26832031 186.48574219 10.16164063 186.22148437 11.08203125 185.94921875 C11.83871094 185.73910156 12.59539062 185.52898437 13.375 185.3125 C14.014375 185.12816406 14.65375 184.94382812 15.3125 184.75390625 C21.65828757 184.74188771 27.08041262 190.57299111 31.60742188 194.51757812 C33.42124861 196.06459954 33.42124861 196.06459954 36.375 197.75 C40.97051226 197.04134624 44.2576257 193.60061391 47.6875 190.625 C48.23728516 190.15707031 48.78707031 189.68914062 49.35351562 189.20703125 C50.69896409 188.06047517 52.037679 186.90602549 53.375 185.75 C52.80910156 184.61820313 52.24320313 183.48640625 51.66015625 182.3203125 C43.46439974 165.92879949 43.46439974 165.92879949 44.375 159.75 C45.72684991 156.09306351 47.53088483 152.7695227 49.4375 149.375 C49.90349609 148.47394531 50.36949219 147.57289063 50.84960938 146.64453125 C54.4030231 140.1952062 54.4030231 140.1952062 58.7265625 138.21484375 C59.93054688 138.06144531 61.13453125 137.90804687 62.375 137.75 C63.04233154 137.65138672 63.70966309 137.55277344 64.3972168 137.45117188 C66.49117044 137.15193086 68.58427719 136.91166184 70.6875 136.6875 C75.68221617 136.29749914 75.68221617 136.29749914 80.375 134.75 C81.76493361 128.25927229 81.50147427 121.35476723 81.375 114.75 C75.86134134 112.28994996 70.32021143 110.37549811 64.54101562 108.64453125 C60.86543589 107.47991769 59.58479185 107.06468778 57.375 103.75 C56.65220572 101.2936288 55.9885653 98.85802206 55.375 96.375 C54.11028505 91.18437533 54.11028505 91.18437533 52.1875 86.2109375 C50.99357553 82.59472397 51.36597377 80.42238618 52.375 76.75 C54.17664113 73.97038634 56.30063743 71.53366588 58.5 69.0625 C59.63902487 67.77695627 60.76723575 66.48172491 61.8828125 65.17578125 C62.38441895 64.61286377 62.88602539 64.04994629 63.40283203 63.4699707 C64.57131222 61.78466904 64.57131222 61.78466904 64.18725586 59.73803711 C63.32180478 57.61980202 62.36980052 56.23827646 60.87109375 54.515625 C60.13149414 53.65517578 60.13149414 53.65517578 59.37695312 52.77734375 C58.86068359 52.19082031 58.34441406 51.60429687 57.8125 51 C57.29236328 50.39800781 56.77222656 49.79601562 56.23632812 49.17578125 C54.95543726 47.69511841 53.66603688 46.22182458 52.375 44.75 C47.42763794 46.6301875 42.70928319 48.97381773 37.99023438 51.359375 C33.92052212 53.32605828 30.87662527 54.43206443 26.375 53.75 C23.89488939 52.56349254 21.6898108 51.38046612 19.375 49.9375 C14.36939646 46.89673162 14.36939646 46.89673162 9.0625 44.42578125 C6.375 42.75 6.375 42.75 5.06640625 39.58203125 C4.33669141 35.53767949 3.7478894 31.5225884 3.3125 27.4375 C2.92249914 22.44278383 2.92249914 22.44278383 1.375 17.75 C-0.65679594 17.28146291 -0.65679594 17.28146291 -3.09765625 17.1171875 C-4.44633789 16.99150391 -4.44633789 16.99150391 -5.82226562 16.86328125 C-7.24055664 16.74533203 -7.24055664 16.74533203 -8.6875 16.625 C-10.1115918 16.49544922 -10.1115918 16.49544922 -11.56445312 16.36328125 C-13.91735092 16.15045632 -16.27068595 15.94642969 -18.625 15.75 Z " fill="#2c3e50" transform="translate(180.625,78.25)"/>
<path d="M0 0 C10.65483393 8.37453803 17.22158464 21.72899483 19 35 C20.043021 51.56798747 16.15104829 65.73653071 5.421875 78.54296875 C-5.0714731 89.18863965 -18.60330326 95.04577888 -33.5625 95.25 C-49.20192278 95.08691947 -62.32053409 89.47213414 -73.58984375 78.640625 C-85.23498557 65.88192828 -87.78848746 51.05955943 -87.17480469 34.46582031 C-86.23458413 21.2029325 -78.82589636 9.92865002 -69.37109375 1 C-48.78550423 -16.36379215 -21.37074654 -14.63026398 0 0 Z M-61 17 C-63.33945452 19.84625101 -65.23486532 22.76957724 -67 26 C-67.3403125 26.60199219 -67.680625 27.20398438 -68.03125 27.82421875 C-71.81373992 35.89703288 -71.14175662 46.48315751 -68.5625 54.8125 C-64.40725375 64.66469165 -56.44301143 71.55830674 -46.921875 75.9609375 C-37.78682024 79.5426676 -28.52584115 78.94854637 -19.53515625 75.26171875 C-9.42034831 70.22769261 -2.83598736 62.54394432 1 52 C3.80372263 42.88790146 2.11378461 32.91716079 -2.25390625 24.6171875 C-7.61414954 15.99990265 -15.08323807 9.52590477 -24.82421875 6.41796875 C-38.49614863 3.79158366 -51.12333104 7.21959487 -61 17 Z " fill="#2c3e50" transform="translate(197,152)"/>
<path d="M0 0 C2.15601874 -0.01190902 4.3091834 -0.06112583 6.46459961 -0.11157227 C7.84284093 -0.12103649 9.22109973 -0.12827153 10.59936523 -0.13305664 C11.84645264 -0.14651123 13.09354004 -0.15996582 14.37841797 -0.17382812 C18.63879347 0.58845027 20.10591864 2.04595685 22.72827148 5.42553711 C23.21655273 8.97631836 23.21655273 8.97631836 23.04077148 12.73803711 C22.9956543 13.99229492 22.95053711 15.24655273 22.90405273 16.53881836 C22.84604492 17.49143555 22.78803711 18.44405273 22.72827148 19.42553711 C23.82139648 19.44616211 24.91452148 19.46678711 26.04077148 19.48803711 C29.72827148 20.42553711 29.72827148 20.42553711 31.85327148 23.55053711 C32.93708246 28.35027143 32.25828314 30.26325987 29.72827148 34.42553711 C27.10647059 36.3099565 25.99483224 36.42553711 22.72827148 36.42553711 C22.77467773 37.38975586 22.82108398 38.35397461 22.86889648 39.34741211 C22.90499023 40.61069336 22.94108398 41.87397461 22.97827148 43.17553711 C23.02467773 44.42850586 23.07108398 45.68147461 23.11889648 46.97241211 C22.72827148 50.42553711 22.72827148 50.42553711 21.16845703 52.60595703 C17.93667454 55.01580945 15.17664596 55.02003079 11.29467773 54.99194336 C10.22225075 55.00124123 10.22225075 55.00124123 9.12815857 55.01072693 C7.61946979 55.0178149 6.11070263 55.01466874 4.60205078 55.00195312 C2.30085318 54.98809781 0.00373433 55.022148 -2.29711914 55.06030273 C-3.76652117 55.06125415 -5.23592827 55.05939388 -6.70532227 55.05444336 C-7.38880234 55.06770157 -8.07228241 55.08095978 -8.776474 55.09461975 C-12.18331656 55.02866582 -14.29432364 54.41241275 -17.24462891 52.69873047 C-20.42749533 47.55930013 -19.65984179 42.31623416 -19.27172852 36.42553711 C-20.13837269 36.42968518 -20.13837269 36.42968518 -21.02252483 36.43391705 C-35.0859097 36.50019294 -49.14927113 36.54982547 -63.21277905 36.58097363 C-70.01381733 36.59643733 -76.81475132 36.61751723 -83.61572266 36.65185547 C-90.17740458 36.68496972 -96.73900653 36.70238413 -103.30077553 36.71016884 C-105.80584737 36.71571753 -108.31091319 36.72655256 -110.81593895 36.74272728 C-114.3211086 36.7644624 -117.82582864 36.7675056 -121.33105469 36.76611328 C-122.36971176 36.77689911 -123.40836884 36.78768494 -124.47850037 36.79879761 C-133.38643206 36.76043769 -133.38643206 36.76043769 -137.27172852 33.42553711 C-139.61722526 29.907292 -139.85164254 28.56778017 -139.27172852 24.42553711 C-137.22816317 21.4586595 -135.59851616 19.68491734 -131.97499657 18.9765377 C-129.02105988 18.8080956 -126.10588219 18.8076134 -123.14746094 18.85791016 C-121.46387482 18.85681496 -121.46387482 18.85681496 -119.74627686 18.85569763 C-116.03942403 18.85917876 -112.33383038 18.89806794 -108.62719727 18.93725586 C-106.056022 18.94658203 -103.48483784 18.95369907 -100.91365051 18.95869446 C-94.83974048 18.9758291 -88.76634947 19.01522762 -82.69263488 19.06544191 C-75.77614853 19.12137933 -68.85964032 19.1488328 -61.94298398 19.17391908 C-47.71899003 19.22614548 -33.49537532 19.31406014 -19.27172852 19.42553711 C-19.29493164 18.53350586 -19.31813477 17.64147461 -19.34204102 16.72241211 C-19.36008789 15.55194336 -19.37813477 14.38147461 -19.39672852 13.17553711 C-19.41993164 12.01538086 -19.44313477 10.85522461 -19.46704102 9.65991211 C-19.28068119 6.5737934 -18.95732196 4.9666623 -17.27172852 2.42553711 C-12.46721498 -1.06682229 -5.69316915 0.01490528 0 0 Z M-2.27172852 17.42553711 C-2.27172852 24.02553711 -2.27172852 30.62553711 -2.27172852 37.42553711 C0.36827148 37.42553711 3.00827148 37.42553711 5.72827148 37.42553711 C5.72827148 30.82553711 5.72827148 24.22553711 5.72827148 17.42553711 C3.08827148 17.42553711 0.44827148 17.42553711 -2.27172852 17.42553711 Z " fill="#2c3e50" transform="translate(434.271728515625,249.574462890625)"/>
<path d="M0 0 C0.72015289 -0.00807175 1.44030579 -0.01614349 2.18228149 -0.02445984 C3.70710852 -0.03829489 5.23196644 -0.04901965 6.75683594 -0.05688477 C9.08588451 -0.07410285 11.413515 -0.11799079 13.7421875 -0.16210938 C15.2239479 -0.17223619 16.70572036 -0.18075233 18.1875 -0.1875 C18.88241547 -0.20500809 19.57733093 -0.22251617 20.29330444 -0.24055481 C23.42551843 -0.22654178 25.35269549 -0.02957302 27.92666626 1.81452942 C30.39782609 5.14220911 30.12821483 7.39366834 29.9765625 11.48828125 C29.94046875 12.7515625 29.904375 14.01484375 29.8671875 15.31640625 C29.82078125 16.280625 29.774375 17.24484375 29.7265625 18.23828125 C31.38240608 18.2282885 31.38240608 18.2282885 33.07170105 18.21809387 C43.4744265 18.15728111 53.87711588 18.11230777 64.27997875 18.08284473 C69.62821549 18.06718829 74.97630874 18.04595021 80.32446289 18.01196289 C85.48564884 17.97936898 90.64669675 17.96142808 95.80797768 17.95364952 C97.77716558 17.94810609 99.74634593 17.93728117 101.71547508 17.92109108 C104.47348741 17.8993165 107.23092923 17.89631435 109.98901367 17.89770508 C110.80325302 17.88691925 111.61749237 17.87613342 112.45640564 17.86502075 C117.05327285 17.8901056 120.10450244 18.31858154 123.7265625 21.23828125 C125.27170906 24.07104995 126.05287105 25.95146769 125.2421875 29.1484375 C123.3113954 33.9458648 123.3113954 33.9458648 120.7265625 35.23828125 C117.85824698 35.33162557 115.01437986 35.36402936 112.14599609 35.35180664 C111.25812912 35.35195267 110.37026215 35.35209869 109.45549011 35.35224915 C106.51196881 35.3515508 103.56851029 35.34376206 100.625 35.3359375 C98.58761632 35.33407304 96.55023219 35.33264927 94.5128479 35.33164978 C89.14358284 35.3278268 83.77434473 35.31799836 78.40509033 35.3069458 C72.9289181 35.29672699 67.45274152 35.29215115 61.9765625 35.28710938 C51.22655065 35.27637592 40.47655881 35.2593021 29.7265625 35.23828125 C29.78457031 36.2746875 29.84257812 37.31109375 29.90234375 38.37890625 C29.94925288 39.74865281 29.99475182 41.11844817 30.0390625 42.48828125 C30.08095703 43.17019531 30.12285156 43.85210937 30.16601562 44.5546875 C30.25802089 48.34530432 30.05413935 49.89030752 27.41639709 52.69229126 C23.9538609 54.68239366 21.57955863 54.72545779 17.59765625 54.69921875 C16.92614029 54.69830231 16.25462433 54.69738586 15.5627594 54.69644165 C14.14992154 54.69042551 12.73709524 54.67473913 11.32446289 54.64990234 C9.16700059 54.61333105 7.01125603 54.60888377 4.85351562 54.609375 C-7.1348382 54.5237881 -7.1348382 54.5237881 -10.2734375 52.23828125 C-12.74422518 48.85066041 -12.48007423 45.57011781 -12.3984375 41.48828125 C-12.38039063 40.3178125 -12.36234375 39.14734375 -12.34375 37.94140625 C-12.32054687 37.049375 -12.29734375 36.15734375 -12.2734375 35.23828125 C-13.12574951 35.26446533 -13.97806152 35.29064941 -14.85620117 35.31762695 C-18.03370877 35.40309617 -21.2106286 35.46564914 -24.38891602 35.51293945 C-25.76150852 35.53800742 -27.13396852 35.57207207 -28.50610352 35.61547852 C-30.48394446 35.67645656 -32.46277934 35.70189134 -34.44140625 35.7265625 C-36.22454224 35.76583862 -36.22454224 35.76583862 -38.04370117 35.8059082 C-42.22103872 35.0717401 -43.67285734 33.51588564 -46.2734375 30.23828125 C-47.01150791 26.30190575 -46.63480458 24.79902327 -44.4609375 21.42578125 C-41.79708581 18.76192956 -40.18842908 18.27512814 -36.4543457 18.12475586 C-35.33890381 18.12999268 -34.22346191 18.13522949 -33.07421875 18.140625 C-31.86572266 18.14384766 -30.65722656 18.14707031 -29.41210938 18.15039062 C-28.14947266 18.15876953 -26.88683594 18.16714844 -25.5859375 18.17578125 C-23.67458008 18.18254883 -23.67458008 18.18254883 -21.72460938 18.18945312 C-18.57417186 18.20125252 -15.42382801 18.21771528 -12.2734375 18.23828125 C-12.32564453 17.02591797 -12.32564453 17.02591797 -12.37890625 15.7890625 C-12.40597656 14.72042969 -12.43304688 13.65179688 -12.4609375 12.55078125 C-12.51314453 10.96716797 -12.51314453 10.96716797 -12.56640625 9.3515625 C-12.23667563 5.8476251 -11.35928462 4.04129614 -9.2734375 1.23828125 C-6.30392611 -0.24647445 -3.25852691 0.03443743 0 0 Z M4.7265625 17.23828125 C4.7265625 23.83828125 4.7265625 30.43828125 4.7265625 37.23828125 C7.3665625 37.23828125 10.0065625 37.23828125 12.7265625 37.23828125 C12.7265625 30.63828125 12.7265625 24.03828125 12.7265625 17.23828125 C10.0865625 17.23828125 7.4465625 17.23828125 4.7265625 17.23828125 Z " fill="#2c3e50" transform="translate(341.2734375,166.76171875)"/>
<path d="M0 0 C0.73951904 -0.00619858 1.47903809 -0.01239716 2.2409668 -0.01878357 C3.80093065 -0.02587188 5.3609703 -0.02272482 6.92089844 -0.01000977 C9.30545348 0.00386525 11.6860884 -0.0302295 14.0703125 -0.06835938 C15.58854262 -0.06931057 17.10677765 -0.06745171 18.625 -0.0625 C19.33551514 -0.07575821 20.04603027 -0.08901642 20.77807617 -0.10267639 C24.34498157 -0.03570274 26.04121894 0.33379134 28.77734375 2.67993164 C30.6405134 6.18315283 30.72185036 8.43498478 30.5625 12.37890625 C30.52640625 13.54035156 30.4903125 14.70179687 30.453125 15.8984375 C30.40671875 16.77886719 30.3603125 17.65929687 30.3125 18.56640625 C31.61920654 18.54545898 32.92591309 18.52451172 34.2722168 18.50292969 C39.12692274 18.43045072 43.98158098 18.3845775 48.83666992 18.34667969 C50.93668667 18.32658228 53.03664758 18.29929959 55.13647461 18.26464844 C58.15752958 18.21604855 61.17784377 18.19341863 64.19921875 18.17578125 C65.60417854 18.14481354 65.60417854 18.14481354 67.03752136 18.11322021 C71.31064753 18.11175405 73.66794496 18.17380572 77.38598633 20.43847656 C79.64840853 22.93743385 80.23053886 24.20599958 80.3125 27.56640625 C79.2551487 31.60356576 77.81892815 33.37711515 74.3125 35.56640625 C72.16107178 35.9271698 72.16107178 35.9271698 69.81933594 35.90698242 C68.49841949 35.90664253 68.49841949 35.90664253 67.15081787 35.90629578 C66.20901672 35.89081192 65.26721558 35.87532806 64.296875 35.859375 C63.32590881 35.85513016 62.35494263 35.85088531 61.35455322 35.84651184 C58.25691869 35.82973478 55.15993751 35.79208397 52.0625 35.75390625 C49.9609469 35.73885817 47.8593836 35.72516998 45.7578125 35.71289062 C40.60912371 35.67983436 35.46092259 35.62805833 30.3125 35.56640625 C30.35890625 36.44683594 30.4053125 37.32726562 30.453125 38.234375 C30.48921875 39.39582031 30.5253125 40.55726562 30.5625 41.75390625 C30.60890625 42.90246094 30.6553125 44.05101562 30.703125 45.234375 C30.23546566 49.22350919 29.14747684 50.77731932 26.3125 53.56640625 C20.92546691 55.36208395 15.13729205 54.79375515 9.5 54.81640625 C8.22833984 54.83703125 6.95667969 54.85765625 5.64648438 54.87890625 C4.41607422 54.8840625 3.18566406 54.88921875 1.91796875 54.89453125 C0.79543701 54.90387695 -0.32709473 54.91322266 -1.48364258 54.92285156 C-5.14521824 54.51548279 -7.54881702 53.46702585 -10.6875 51.56640625 C-12.18906874 48.56326877 -11.78031204 45.77573103 -11.75 42.44140625 C-11.74097656 41.16007812 -11.73195313 39.87875 -11.72265625 38.55859375 C-11.71105469 37.57117188 -11.69945312 36.58375 -11.6875 35.56640625 C-12.61600266 35.57750931 -13.54450531 35.58861237 -14.50114441 35.60005188 C-23.25561199 35.70027791 -32.00988663 35.77638348 -40.76479626 35.82546711 C-45.26572857 35.85155016 -49.76618644 35.88692401 -54.2668457 35.94360352 C-58.61109892 35.99797031 -62.95489609 36.02783652 -67.29946327 36.04079247 C-68.95610038 36.05002406 -70.61271279 36.06805171 -72.2691555 36.09505653 C-74.59168601 36.13141123 -76.9123377 36.13634926 -79.23510742 36.1340332 C-79.91843643 36.15200958 -80.60176544 36.16998596 -81.30580139 36.18850708 C-85.09790623 36.14764969 -86.62218308 35.61851143 -89.62593079 33.22233582 C-91.6875 30.56640625 -91.6875 30.56640625 -92.125 27.50390625 C-91.70007513 24.65083926 -91.35662169 22.90317662 -89.6875 20.56640625 C-86.06588604 18.12585981 -82.71815418 18.32480539 -78.44042969 18.33935547 C-77.71808136 18.33906342 -76.99573303 18.33877136 -76.25149536 18.33847046 C-73.87066517 18.33986063 -71.49015033 18.35540691 -69.109375 18.37109375 C-67.45599539 18.374825 -65.80261357 18.37767144 -64.14923096 18.37966919 C-59.80250926 18.38729687 -55.45592171 18.40693792 -51.10925293 18.42907715 C-46.67181208 18.44955421 -42.2343495 18.45867489 -37.796875 18.46875 C-29.09368851 18.49018464 -20.39061096 18.52431013 -11.6875 18.56640625 C-11.73390625 17.6021875 -11.7803125 16.63796875 -11.828125 15.64453125 C-11.86421875 14.38125 -11.9003125 13.11796875 -11.9375 11.81640625 C-11.98390625 10.5634375 -12.0303125 9.31046875 -12.078125 8.01953125 C-11.6875 4.56640625 -11.6875 4.56640625 -9.89135742 2.1466217 C-6.73391176 -0.11733802 -3.74607423 -0.0261501 0 0 Z M5.3125 16.56640625 C5.3125 23.49640625 5.3125 30.42640625 5.3125 37.56640625 C7.9525 37.56640625 10.5925 37.56640625 13.3125 37.56640625 C13.3125 30.63640625 13.3125 23.70640625 13.3125 16.56640625 C10.6725 16.56640625 8.0325 16.56640625 5.3125 16.56640625 Z " fill="#2c3e50" transform="translate(386.6875,83.43359375)"/>
<path d="M0 0 C2.36958236 1.83451538 2.86941344 3.20180797 3.34765625 6.125 C3.61368326 10.27229284 3.5891231 12.28958685 0.875 15.5625 C-2.50839538 17.25419769 -4.26824414 17.62195931 -8 17 C-10.875 15.5625 -10.875 15.5625 -13 13 C-13.81165209 8.8268831 -13.67181341 5.27964458 -11.6875 1.5 C-7.99353237 -1.78352678 -4.53412747 -1.05256531 0 0 Z " fill="#2c3e50" transform="translate(261,367)"/>
</svg>
