<svg width="23" height="23" viewBox="0 0 23 23" fill="none" xmlns="http://www.w3.org/2000/svg">
<g clip-path="url(#clip0_1647_396)">
<path d="M2.875 11.5C2.875 12.6327 3.09809 13.7542 3.53154 14.8006C3.96499 15.8471 4.6003 16.7979 5.4012 17.5988C6.20211 18.3997 7.15292 19.035 8.19936 19.4685C9.24579 19.9019 10.3673 20.125 11.5 20.125C12.6327 20.125 13.7542 19.9019 14.8006 19.4685C15.8471 19.035 16.7979 18.3997 17.5988 17.5988C18.3997 16.7979 19.035 15.8471 19.4685 14.8006C19.9019 13.7542 20.125 12.6327 20.125 11.5C20.125 9.21251 19.2163 7.01871 17.5988 5.4012C15.9813 3.7837 13.7875 2.875 11.5 2.875C9.21251 2.875 7.0187 3.7837 5.4012 5.4012C3.7837 7.01871 2.875 9.21251 2.875 11.5Z" stroke="white" stroke-opacity="0.9" stroke-width="2.75" stroke-linecap="round" stroke-linejoin="round"/>
<path d="M8.625 11.5H14.375" stroke="white" stroke-opacity="0.9" stroke-width="2.75" stroke-linecap="round" stroke-linejoin="round"/>
<path d="M11.5 8.625V14.375" stroke="white" stroke-opacity="0.9" stroke-width="2.75" stroke-linecap="round" stroke-linejoin="round"/>
</g>
<defs>
<clipPath id="clip0_1647_396">
<rect width="23" height="23" fill="white"/>
</clipPath>
</defs>
</svg>
