<svg width="23" height="23" viewBox="0 0 23 23" fill="none" xmlns="http://www.w3.org/2000/svg">
<g clip-path="url(#clip0_1645_43)">
<path d="M2.875 9.58333C2.875 10.4643 3.04852 11.3366 3.38564 12.1505C3.72277 12.9644 4.2169 13.7039 4.83983 14.3268C5.46275 14.9498 6.20227 15.4439 7.01617 15.781C7.83006 16.1182 8.70238 16.2917 9.58333 16.2917C10.4643 16.2917 11.3366 16.1182 12.1505 15.781C12.9644 15.4439 13.7039 14.9498 14.3268 14.3268C14.9498 13.7039 15.4439 12.9644 15.781 12.1505C16.1182 11.3366 16.2917 10.4643 16.2917 9.58333C16.2917 8.70238 16.1182 7.83006 15.781 7.01617C15.4439 6.20227 14.9498 5.46275 14.3268 4.83983C13.7039 4.2169 12.9644 3.72277 12.1505 3.38564C11.3366 3.04852 10.4643 2.875 9.58333 2.875C8.70238 2.875 7.83006 3.04852 7.01617 3.38564C6.20227 3.72277 5.46275 4.2169 4.83983 4.83983C4.2169 5.46275 3.72277 6.20227 3.38564 7.01617C3.04852 7.83006 2.875 8.70238 2.875 9.58333Z" stroke="#2C3E50" stroke-width="2.75" stroke-linecap="round" stroke-linejoin="round"/>
<path d="M20.125 20.125L14.375 14.375" stroke="#2C3E50" stroke-width="2.75" stroke-linecap="round" stroke-linejoin="round"/>
</g>
<defs>
<clipPath id="clip0_1645_43">
<rect width="23" height="23" fill="white"/>
</clipPath>
</defs>
</svg>
