<svg width="26" height="24" viewBox="0 0 26 24" fill="none" xmlns="http://www.w3.org/2000/svg">
<g clip-path="url(#clip0_0_21)">
<path d="M10.7893 13C10.7893 13.5304 11.0167 14.0391 11.4213 14.4142C11.826 14.7893 12.3749 15 12.9472 15C13.5195 15 14.0683 14.7893 14.473 14.4142C14.8777 14.0391 15.1051 13.5304 15.1051 13C15.1051 12.4696 14.8777 11.9609 14.473 11.5858C14.0683 11.2107 13.5195 11 12.9472 11C12.3749 11 11.826 11.2107 11.4213 11.5858C11.0167 11.9609 10.7893 12.4696 10.7893 13Z" stroke="#73D13D" stroke-width="2" stroke-linecap="round" stroke-linejoin="round"/>
<path d="M8.63146 21V20C8.63146 19.4696 8.8588 18.9609 9.26348 18.5858C9.66816 18.2107 10.217 18 10.7893 18H15.1051C15.6774 18 16.2262 18.2107 16.6309 18.5858C17.0356 18.9609 17.2629 19.4696 17.2629 20V21" stroke="#73D13D" stroke-width="2" stroke-linecap="round" stroke-linejoin="round"/>
<path d="M16.184 5C16.184 5.53043 16.4113 6.03914 16.816 6.41421C17.2207 6.78929 17.7695 7 18.3418 7C18.9141 7 19.463 6.78929 19.8677 6.41421C20.2724 6.03914 20.4997 5.53043 20.4997 5C20.4997 4.46957 20.2724 3.96086 19.8677 3.58579C19.463 3.21071 18.9141 3 18.3418 3C17.7695 3 17.2207 3.21071 16.816 3.58579C16.4113 3.96086 16.184 4.46957 16.184 5Z" stroke="#73D13D" stroke-width="2" stroke-linecap="round" stroke-linejoin="round"/>
<path d="M18.3419 10H20.4997C21.072 10 21.6209 10.2107 22.0256 10.5858C22.4302 10.9609 22.6576 11.4696 22.6576 12V13" stroke="#73D13D" stroke-width="2" stroke-linecap="round" stroke-linejoin="round"/>
<path d="M5.39466 5C5.39466 5.53043 5.62201 6.03914 6.02668 6.41421C6.43136 6.78929 6.98022 7 7.55253 7C8.12483 7 8.67369 6.78929 9.07837 6.41421C9.48304 6.03914 9.71039 5.53043 9.71039 5C9.71039 4.46957 9.48304 3.96086 9.07837 3.58579C8.67369 3.21071 8.12483 3 7.55253 3C6.98022 3 6.43136 3.21071 6.02668 3.58579C5.62201 3.96086 5.39466 4.46957 5.39466 5Z" stroke="#73D13D" stroke-width="2" stroke-linecap="round" stroke-linejoin="round"/>
<path d="M3.2368 13V12C3.2368 11.4696 3.46414 10.9609 3.86882 10.5858C4.2735 10.2107 4.82236 10 5.39466 10H7.55253" stroke="#73D13D" stroke-width="2" stroke-linecap="round" stroke-linejoin="round"/>
</g>
<defs>
<clipPath id="clip0_0_21">
<rect width="25.8944" height="24" fill="white"/>
</clipPath>
</defs>
</svg>
