<svg width="26" height="24" viewBox="0 0 26 24" fill="none" xmlns="http://www.w3.org/2000/svg">
<g clip-path="url(#clip0_0_7)">
<path d="M5.39466 12H3.2368L12.9472 3L22.6576 12H20.4997" stroke="#1F1F1F" stroke-width="2" stroke-linecap="round" stroke-linejoin="round"/>
<path d="M5.39466 12V19C5.39466 19.5304 5.62201 20.0391 6.02668 20.4142C6.43136 20.7893 6.98022 21 7.55253 21H18.3418C18.9142 21 19.463 20.7893 19.8677 20.4142C20.2724 20.0391 20.4997 19.5304 20.4997 19V12" stroke="#1F1F1F" stroke-width="2" stroke-linecap="round" stroke-linejoin="round"/>
<path d="M9.71039 21V15C9.71039 14.4696 9.93773 13.9609 10.3424 13.5858C10.7471 13.2107 11.296 13 11.8683 13H14.0261C14.5984 13 15.1473 13.2107 15.552 13.5858C15.9566 13.9609 16.184 14.4696 16.184 15V21" stroke="#1F1F1F" stroke-width="2" stroke-linecap="round" stroke-linejoin="round"/>
</g>
<defs>
<clipPath id="clip0_0_7">
<rect width="25.8944" height="24" fill="white"/>
</clipPath>
</defs>
</svg>
