<svg width="26" height="24" viewBox="0 0 26 24" fill="none" xmlns="http://www.w3.org/2000/svg">
<g clip-path="url(#clip0_0_29)">
<path d="M15.1051 8V6C15.1051 5.46957 14.8777 4.96086 14.473 4.58579C14.0684 4.21071 13.5195 4 12.9472 4H5.39466C4.82236 4 4.2735 4.21071 3.86882 4.58579C3.46414 4.96086 3.2368 5.46957 3.2368 6V18C3.2368 18.5304 3.46414 19.0391 3.86882 19.4142C4.2735 19.7893 4.82236 20 5.39466 20H12.9472C13.5195 20 14.0684 19.7893 14.473 19.4142C14.8777 19.0391 15.1051 18.5304 15.1051 18V16" stroke="#1F1F1F" stroke-width="2" stroke-linecap="round" stroke-linejoin="round"/>
<path d="M9.71039 12H22.6576L19.4208 9" stroke="#1F1F1F" stroke-width="2" stroke-linecap="round" stroke-linejoin="round"/>
<path d="M19.4208 15L22.6576 12" stroke="#1F1F1F" stroke-width="2" stroke-linecap="round" stroke-linejoin="round"/>
</g>
<defs>
<clipPath id="clip0_0_29">
<rect width="25.8944" height="24" fill="white"/>
</clipPath>
</defs>
</svg>
