<svg width="22" height="20" viewBox="0 0 22 20" fill="none" xmlns="http://www.w3.org/2000/svg">
<g clip-path="url(#clip0_0_17)">
<path d="M2.69733 8.33333C2.69733 9.09938 2.86012 9.85792 3.17642 10.5657C3.49271 11.2734 3.9563 11.9164 4.54073 12.4581C5.12516 12.9998 5.81899 13.4295 6.58258 13.7226C7.34618 14.0158 8.16459 14.1667 8.9911 14.1667C9.81761 14.1667 10.636 14.0158 11.3996 13.7226C12.1632 13.4295 12.857 12.9998 13.4415 12.4581C14.0259 11.9164 14.4895 11.2734 14.8058 10.5657C15.1221 9.85792 15.2849 9.09938 15.2849 8.33333C15.2849 7.56729 15.1221 6.80875 14.8058 6.10101C14.4895 5.39328 14.0259 4.75022 13.4415 4.20854C12.857 3.66687 12.1632 3.23719 11.3996 2.94404C10.636 2.65088 9.81761 2.5 8.9911 2.5C8.16459 2.5 7.34618 2.65088 6.58258 2.94404C5.81899 3.23719 5.12516 3.66687 4.54073 4.20854C3.9563 4.75022 3.49271 5.39328 3.17642 6.10101C2.86012 6.80875 2.69733 7.56729 2.69733 8.33333Z" stroke="#1F1F1F" stroke-width="2" stroke-linecap="round" stroke-linejoin="round"/>
<path d="M18.8813 17.5L13.4867 12.5" stroke="#1F1F1F" stroke-width="2" stroke-linecap="round" stroke-linejoin="round"/>
</g>
<defs>
<clipPath id="clip0_0_17">
<rect width="21.5786" height="20" fill="white"/>
</clipPath>
</defs>
</svg>
